<svg xmlns="http://www.w3.org/2000/svg" width="24" height="24" viewBox="0 0 24 24" fill="none">
  <path opacity="0.5" d="M5 10.5C5.41421 10.5 5.75 10.8358 5.75 11.25V12C5.75 15.4518 8.54822 18.25 12 18.25C15.4518 18.25 18.25 15.4518 18.25 12V11.25C18.25 10.8358 18.5858 10.5 19 10.5C19.4142 10.5 19.75 10.8358 19.75 11.25V12C19.75 15.9865 16.7616 19.2754 12.9091 19.723C12.8378 19.7313 12.79 19.7935 12.79 19.8653V21.25C12.79 21.6642 12.4542 22 12.04 22H12C11.5858 22 11.25 21.6642 11.25 21.25V19.8653C11.25 19.7935 11.2022 19.7313 11.1309 19.723C7.27838 19.2754 4.29 15.9865 4.29 12V11.25C4.29 10.8358 4.62579 10.5 5.04 10.5H5Z" fill="currentColor"/>
  <path d="M12 2C9.79086 2 8 3.79086 8 6V12C8 14.2091 9.79086 16 12 16C14.2091 16 16 14.2091 16 12V6C16 3.79086 14.2091 2 12 2Z" fill="currentColor"/>
</svg>